<?xml version="1.0" encoding="UTF-8" standalone="no"?>
<!-- Created with Inkscape (http://www.inkscape.org/) -->

<svg
   xmlns:dc="http://purl.org/dc/elements/1.1/"
   xmlns:cc="http://creativecommons.org/ns#"
   xmlns:rdf="http://www.w3.org/1999/02/22-rdf-syntax-ns#"
   xmlns:svg="http://www.w3.org/2000/svg"
   xmlns="http://www.w3.org/2000/svg"
   xmlns:sodipodi="http://sodipodi.sourceforge.net/DTD/sodipodi-0.dtd"
   xmlns:inkscape="http://www.inkscape.org/namespaces/inkscape"
   width="75.765869mm"
   height="212.14772mm"
   viewBox="0 0 75.765869 212.14772"
   version="1.1"
   id="svg8"
   inkscape:version="0.92.2 (5c3e80d, 2017-08-06)"
   sodipodi:docname="logo-lines-lit.svg">
  <defs
     id="defs2" />
  <sodipodi:namedview
     id="base"
     pagecolor="#ffffff"
     bordercolor="#666666"
     borderopacity="1.0"
     inkscape:pageopacity="0.0"
     inkscape:pageshadow="2"
     inkscape:zoom="0.70710678"
     inkscape:cx="119.48132"
     inkscape:cy="381.41483"
     inkscape:document-units="mm"
     inkscape:current-layer="layer1"
     showgrid="false"
     inkscape:snap-bbox="true"
     inkscape:window-width="1920"
     inkscape:window-height="1017"
     inkscape:window-x="-8"
     inkscape:window-y="-8"
     inkscape:window-maximized="1"
     fit-margin-top="0"
     fit-margin-left="0"
     fit-margin-right="0"
     fit-margin-bottom="0"
     inkscape:pagecheckerboard="true" />
  <metadata
     id="metadata5">
    <rdf:RDF>
      <cc:Work
         rdf:about="">
        <dc:format>image/svg+xml</dc:format>
        <dc:type
           rdf:resource="http://purl.org/dc/dcmitype/StillImage" />
        <dc:title></dc:title>
      </cc:Work>
    </rdf:RDF>
  </metadata>
  <g
     inkscape:label="Layer 1"
     inkscape:groupmode="layer"
     id="layer1"
     transform="translate(-98.956519,-85.999653)">
    <path
       style="fill:#ffff01;fill-opacity:1;stroke:none;stroke-width:0.26458332px;stroke-linecap:butt;stroke-linejoin:miter;stroke-opacity:1"
       d="m 115.40624,127.01433 c 19.29054,3.17663 27.99633,3.36589 44.97978,0.13625 l 2.9543,23.49731 -1.19942,21.84788 -24.15502,1.26258 -24.81444,-1.53321 -0.0422,-23.14011 2.27704,-22.0707 v 0"
       id="path4536"
       inkscape:connector-curvature="0"
       sodipodi:nodetypes="ccccccccc" />
    <path
       style="fill:none;fill-opacity:1;stroke:#ffffff;stroke-width:2;stroke-miterlimit:4;stroke-dasharray:none;stroke-opacity:1"
       d="m 110.9033,176.53324 c 17.21917,3.26252 34.84911,2.69012 53.82038,0 3.6887,37.07944 -1.18038,74.24881 5.01673,117.52717 -4.62437,1.87625 -9.31353,3.10796 -14.71477,3.08697 l -36.30935,0.18709 c -3.54567,-0.28334 -9.10857,-0.88733 -13.11036,-3.3676 4.94414,-42.85054 0.63969,-81.56953 5.29737,-117.43363 z"
       id="rect815"
       inkscape:connector-curvature="0"
       sodipodi:nodetypes="ccccccc" />
    <path
       style="fill:none;fill-opacity:1;stroke:#ffffff;stroke-width:1.77602184;stroke-miterlimit:4;stroke-dasharray:none;stroke-opacity:1"
       d="m 131.20499,265.03693 c 4.05929,-0.41537 6.00191,-0.6431 10.0612,0 0.39254,14.64261 0.56908,22.49498 0.46302,32.15158 l -11.04394,0.14174 c -0.55443,-10.71719 -0.17,-21.57613 0.51972,-32.29332 z"
       id="rect815-1"
       inkscape:connector-curvature="0"
       sodipodi:nodetypes="ccccc" />
    <path
       style="fill:none;fill-opacity:0.9906977;stroke:#ffffff;stroke-width:2;stroke-miterlimit:4;stroke-dasharray:none;stroke-opacity:1"
       d="m 130.53922,201.44732 c 4.43235,-0.35215 6.60856,-0.16795 10.52081,0 0.44695,7.20219 0.14177,12.04056 0,17.39249 -3.90837,0.34367 -6.35085,0.17952 -10.52081,0 -0.22815,-5.7975 -0.38656,-11.59499 0,-17.39249 z"
       id="rect815-1-8"
       inkscape:connector-curvature="0"
       sodipodi:nodetypes="ccccc" />
    <path
       style="fill:none;fill-opacity:1;stroke:#ffffff;stroke-width:2;stroke-linecap:butt;stroke-linejoin:miter;stroke-miterlimit:16;stroke-dasharray:none;stroke-opacity:1"
       d="m 110.9033,176.53324 c 18.71906,3.80927 36.15518,2.48609 53.82038,0 1.77021,-2.14487 3.24823,-2.39318 5.59111,-5.35455 -21.56529,3.38062 -42.4893,2.96446 -66.82131,-0.451 1.26065,2.26164 5.27006,3.88281 7.40982,5.80555 z"
       id="path852"
       inkscape:connector-curvature="0"
       sodipodi:nodetypes="ccccc" />
    <path
       style="fill:none;stroke:#ffffff;stroke-width:1.78685462;stroke-linecap:butt;stroke-linejoin:miter;stroke-miterlimit:4;stroke-dasharray:none;stroke-opacity:1;fill-opacity:1"
       d="m 162.1409,172.49577 c 0.83482,-15.11271 0.73897,-30.57312 -1.75488,-45.34519 m -44.97978,-0.13625 c -2.90988,14.55407 -3.42175,30.52048 -2.2348,45.21081"
       id="path854"
       inkscape:connector-curvature="0"
       sodipodi:nodetypes="cccc" />
    <path
       style="fill:none;stroke:#ffffff;stroke-width:1.5;stroke-linecap:butt;stroke-linejoin:miter;stroke-miterlimit:4;stroke-dasharray:none;stroke-opacity:1"
       d="m 107.60456,171.42193 c -0.63738,-2.87036 -0.40847,-5.34694 -2.65548,-8.94895 16.76931,3.15922 36.12238,4.97275 65.99775,-0.0104 -2.93025,4.31241 -2.49433,6.73134 -3.04008,9.70246"
       id="path856"
       inkscape:connector-curvature="0"
       sodipodi:nodetypes="cccc" />
    <path
       style="fill:none;stroke:#ffffff;stroke-width:1.34000003;stroke-linecap:butt;stroke-linejoin:miter;stroke-miterlimit:0;stroke-dasharray:none;stroke-opacity:1"
       d="m 114.55273,131.30639 27.2461,40.86377 c 7.44107,-10.70098 13.09771,-23.97159 19.43194,-32.99015 l -7.14966,-10.45004 c -8.07018,11.24387 -16.26764,28.85289 -26.79188,43.7127 -4.69254,-7.38052 -8.57409,-15.97712 -14.16001,-23.35764 4.96429,-6.80272 8.88593,-12.8662 13.1276,-20.15067 10.88354,14.56425 19.18821,29.64452 29.19811,43.2358 l 6.58017,-12.38906 -21.82405,-30.12941 c -8.97806,14.60041 -16.14046,27.0376 -27.13315,41.63801"
       id="path858"
       inkscape:connector-curvature="0"
       sodipodi:nodetypes="ccccccccccc" />
    <path
       style="fill:none;fill-opacity:1;stroke:#ffffff;stroke-width:1.73381758;stroke-linecap:butt;stroke-linejoin:miter;stroke-miterlimit:4;stroke-dasharray:none;stroke-opacity:1"
       d="m 164.5369,127.1239 c -5.66159,-3.13037 -13.09773,-6.59352 -18.90909,-10.46468 -5.2885,1.27346 -10.34442,0.68627 -15.38833,0.003 -5.95365,3.88037 -13.16388,6.84062 -19.39159,10.15339 16.97008,3.29617 35.08732,4.41554 53.68901,0.30829 z"
       id="path869"
       inkscape:connector-curvature="0"
       sodipodi:nodetypes="ccccc" />
    <path
       style="fill:none;fill-opacity:0.94117647;stroke:#ffffff;stroke-width:1.56624377;stroke-miterlimit:4;stroke-dasharray:none;stroke-opacity:1"
       d="m 130.50574,107.80801 c 4.5463,0.43096 9.48176,0.37763 15.08387,0.0154 0.50371,3.26003 0.20561,6.32568 0.0382,8.83581 -5.41072,1.12611 -10.47468,0.86517 -15.38833,0.003 -0.47696,-2.67436 -0.44632,-6.9688 0.2663,-8.85433 z"
       id="rect871"
       inkscape:connector-curvature="0"
       sodipodi:nodetypes="cccccc" />
    <g
       id="g972"
       transform="translate(-1.2372693,0.65948068)"
       style="stroke:#ffffff;stroke-opacity:1" />
    <path
       style="fill:none;stroke:#ffffff;stroke-width:1.70322001;stroke-linecap:butt;stroke-linejoin:miter;stroke-miterlimit:4;stroke-dasharray:none;stroke-opacity:1"
       d="M 137.84921,107.458 V 86.007867"
       id="path940"
       inkscape:connector-curvature="0" />
    <path
       style="fill:none;fill-opacity:0.94117647;stroke:#ffffff;stroke-width:1;stroke-linecap:butt;stroke-linejoin:miter;stroke-miterlimit:4;stroke-dasharray:none;stroke-opacity:1"
       d="m 137.436,86.444698 c -5.86458,2.805202 -17.87862,2.77213 -19.57756,4.022658 6.90829,1.291215 12.5794,2.306989 19.91644,2.302455"
       id="path1013"
       inkscape:connector-curvature="0"
       sodipodi:nodetypes="ccc" />
    <path
       style="fill:none;fill-opacity:0.94117647;stroke:#ffffff;stroke-width:1.5;stroke-linecap:butt;stroke-linejoin:miter;stroke-miterlimit:4;stroke-dasharray:none;stroke-opacity:1;paint-order:normal"
       d="m 123.57322,182.69885 c 9.76045,0.53392 18.26384,0.40237 27.02131,0.13229 1.4759,17.52369 1.13134,34.50607 0.71624,53.48497 -8.94778,0.27067 -18.18078,0.42726 -28.87339,0 -0.70262,-18.9789 0.14941,-37.54878 1.13584,-53.61726 z"
       id="rect1047"
       inkscape:connector-curvature="0"
       sodipodi:nodetypes="ccccc" />
    <path
       style="fill:none;fill-opacity:0.94117647;stroke:#ffffff;stroke-width:1.5;stroke-linecap:butt;stroke-linejoin:miter;stroke-miterlimit:4;stroke-dasharray:none;stroke-opacity:1;paint-order:normal"
       d="m 123.21508,240.93158 c 9.62447,0.36914 18.31349,0.33609 27.93796,0 0,19.63535 0.35812,37.36791 1.41646,56.05606 l -30.80963,-0.17105 c 1.12925,-17.08786 0.26385,-5.33504 1.45521,-55.88501 z"
       id="rect1047-7"
       inkscape:connector-curvature="0"
       sodipodi:nodetypes="ccccc" />
    <path
       style="fill:none;stroke:#ffffff;stroke-width:1.5;stroke-linecap:butt;stroke-linejoin:miter;stroke-miterlimit:4;stroke-dasharray:none;stroke-opacity:1"
       d="m 164.45238,180.26318 c -2.33095,0.91166 -6.46421,1.83262 -10.02285,2.21235 1.04229,18.54861 1.62146,35.76285 0.94764,53.57599 4.30195,-0.53997 7.0447,-1.20722 11.06573,-2.18888"
       id="path1072-5"
       inkscape:connector-curvature="0"
       sodipodi:nodetypes="cccc" />
    <path
       style="fill:none;stroke:#ffffff;stroke-width:1.5;stroke-linecap:butt;stroke-linejoin:miter;stroke-miterlimit:4;stroke-dasharray:none;stroke-opacity:1"
       d="m 107.68777,238.61613 c 4.05252,0.8353 6.61631,1.84173 10.91306,2.18857 -0.58044,18.8882 -0.1426,37.07074 -2.10475,56.31369"
       id="path1089"
       inkscape:connector-curvature="0"
       sodipodi:nodetypes="ccc" />
    <path
       style="fill:none;stroke:#ffffff;stroke-width:1.5;stroke-linecap:butt;stroke-linejoin:miter;stroke-miterlimit:4;stroke-dasharray:none;stroke-opacity:1"
       d="m 166.96309,237.87872 c -4.05253,0.8353 -7.33728,2.2613 -11.63403,2.60814 0.58044,18.8882 0.1426,37.07074 2.10475,56.31369"
       id="path1089-4"
       inkscape:connector-curvature="0"
       sodipodi:nodetypes="ccc" />
    <path
       style="fill:none;stroke:#ffffff;stroke-width:1.5;stroke-linecap:butt;stroke-linejoin:miter;stroke-miterlimit:4;stroke-dasharray:none;stroke-opacity:1"
       d="m 109.51829,180.35433 c 2.33095,0.91166 6.18358,1.73907 10.11641,2.02526 -1.0423,18.54861 -1.71502,35.94994 -1.04119,53.76308 -4.30196,-0.53998 -7.04471,-1.20723 -11.06574,-2.18889"
       id="path1072-5-6"
       inkscape:connector-curvature="0"
       sodipodi:nodetypes="cccc" />
  </g>
</svg>
